<svg xmlns="http://www.w3.org/2000/svg" viewBox="0 0 80 55.3"><defs><style>.cls-1{fill:#231f20;}.cls-2{fill:#c74a50;}.cls-3{fill:#c8444e;}</style></defs><title>Asset 3</title><g id="Layer_2" data-name="Layer 2"><g id="Layer_1-2" data-name="Layer 1"><path class="cls-1" d="M67.79,20.06h-.17L61.2,4.2c-1.1-2.67-3.67-4.2-7-4.2a8.49,8.49,0,0,0-.88,0H24.71a6.13,6.13,0,0,0-6.37,4.15L12.93,20.06h-.72a5.83,5.83,0,0,0-5.62,4.26H73.41A5.83,5.83,0,0,0,67.79,20.06Zm-49.93,0L22.77,5.65l0-.11s.25-.85,1.5-.85h29.4a2.6,2.6,0,0,1,.45,0c1,0,2.28.23,2.72,1.31l5.7,14.09Z"/><path class="cls-1" d="M12.21,47.33h.58v5.49h0a2.73,2.73,0,0,0,2.7,2.48H20a2.72,2.72,0,0,0,2.72-2.73,2.61,2.61,0,0,0-.05-.48V47.33H56.71v5.49h0a2.72,2.72,0,0,0,2.7,2.48h4.47a2.72,2.72,0,0,0,2.72-2.73,2.61,2.61,0,0,0,0-.48V47.33h1.21A5.83,5.83,0,0,0,73.43,43H6.57A5.83,5.83,0,0,0,12.21,47.33Z"/><path class="cls-2" d="M5.86,26.21a4.06,4.06,0,0,1,1.63.33,4.27,4.27,0,0,1,1.34.9,4.2,4.2,0,0,1,.9,1.35,4.14,4.14,0,0,1,.33,1.64v6.06a4.11,4.11,0,0,1-.33,1.64,4.19,4.19,0,0,1-2.24,2.24,4.06,4.06,0,0,1-1.63.33H4.21a4.11,4.11,0,0,1-1.64-.33A4.19,4.19,0,0,1,.33,38.13,4.11,4.11,0,0,1,0,36.49V30.43a4.14,4.14,0,0,1,.33-1.64,4.2,4.2,0,0,1,.9-1.35,4.27,4.27,0,0,1,1.34-.9,4.11,4.11,0,0,1,1.64-.33Zm1.6,4.36A2,2,0,0,0,7,29.27a1.43,1.43,0,0,0-1.18-.54H4.22A1.43,1.43,0,0,0,3,29.27a2,2,0,0,0-.43,1.3v5.77A2,2,0,0,0,3,37.64a1.43,1.43,0,0,0,1.18.54H5.84A1.43,1.43,0,0,0,7,37.64a2,2,0,0,0,.44-1.3Z"/><path class="cls-2" d="M18,26.21a3.78,3.78,0,0,1,1.54.31,3.62,3.62,0,0,1,1.25.84,3.94,3.94,0,0,1,1.15,2.78v.63a4,4,0,0,1-.31,1.54,4.1,4.1,0,0,1-.84,1.25,3.62,3.62,0,0,1-1.25.84,4,4,0,0,1-1.54.31H14.32v6H11.77V26.21Zm-3.66,2.54v3.42h3.24a1.74,1.74,0,0,0,1.33-.45,1.77,1.77,0,0,0,.42-1.25,1.79,1.79,0,0,0-.43-1.25,1.7,1.7,0,0,0-1.32-.47Z"/><path class="cls-2" d="M29.51,26.21a3.78,3.78,0,0,1,1.54.31,3.72,3.72,0,0,1,1.25.84,4,4,0,0,1,.84,1.25,3.94,3.94,0,0,1,.3,1.53v.63a4,4,0,0,1-.3,1.54,4.1,4.1,0,0,1-.84,1.25,3.72,3.72,0,0,1-1.25.84,4,4,0,0,1-1.54.31H25.85v6H23.3V26.21Zm-3.66,2.54v3.42h3.23a1.75,1.75,0,0,0,1.34-.45,1.77,1.77,0,0,0,.42-1.25,1.79,1.79,0,0,0-.43-1.25,1.71,1.71,0,0,0-1.33-.47Z"/><path class="cls-2" d="M41.63,38.49H37.74l-.53,2.21H34.64l3.71-14.49h2.77L44.7,40.7H42.15Zm-3.38-2.15h2.89L39.8,30.42h-.14Z"/><path class="cls-2" d="M53.3,37.81a2.48,2.48,0,0,0,.43-.91h2.69A4.83,4.83,0,0,1,56,38.39a4.14,4.14,0,0,1-.85,1.2,3.83,3.83,0,0,1-1.22.81,3.87,3.87,0,0,1-1.53.3H50.59A4.06,4.06,0,0,1,49,40.37a4.19,4.19,0,0,1-2.24-2.24,4.11,4.11,0,0,1-.33-1.64V30.43a4.14,4.14,0,0,1,.33-1.64,4.2,4.2,0,0,1,.9-1.35,4.27,4.27,0,0,1,1.34-.9,4.06,4.06,0,0,1,1.63-.33h1.82a3.88,3.88,0,0,1,1.54.3,3.75,3.75,0,0,1,1.21.82A4.19,4.19,0,0,1,56,28.54a5,5,0,0,1,.41,1.52H53.74a2.3,2.3,0,0,0-.42-.95,1.09,1.09,0,0,0-.92-.38H50.61a1.42,1.42,0,0,0-1.18.54,2,2,0,0,0-.44,1.3v5.77a2,2,0,0,0,.44,1.3,1.42,1.42,0,0,0,1.18.54H52.4A1.06,1.06,0,0,0,53.3,37.81Z"/><path class="cls-2" d="M64.71,38.49h-3.9l-.53,2.21H57.71l3.71-14.49H64.2L67.77,40.7H65.22Zm-3.39-2.15h2.89l-1.34-5.92h-.14Z"/><path class="cls-2" d="M72.29,34.84V40.7H69.6V26.21h6.21a3.78,3.78,0,0,1,1.54.31,3.72,3.72,0,0,1,1.25.84,4,4,0,0,1,.84,1.25,3.94,3.94,0,0,1,.3,1.53v.63a4,4,0,0,1-.3,1.54,4.1,4.1,0,0,1-.84,1.25,3.72,3.72,0,0,1-1.25.84,4,4,0,0,1-1.54.31h-.73l4.92,6H76.92Zm0-6.09v3.42h3.1a1.74,1.74,0,0,0,1.33-.45,1.77,1.77,0,0,0,.42-1.25,1.79,1.79,0,0,0-.43-1.25,1.7,1.7,0,0,0-1.32-.47Z"/><path class="cls-3" d="M47.31,7.1c-3.93,0-6,1.27-7.31,1.27S36.62,7.1,32.69,7.1a23.08,23.08,0,0,0-5.58.47V8.9a1.61,1.61,0,0,1,1.3,1.75c0,1.58.33,5,5.06,5,6.35,0,4.2-5.68,6.53-5.68s.18,5.68,6.53,5.68c4.73,0,5.06-3.4,5.06-5a1.61,1.61,0,0,1,1.3-1.75V7.57A23.08,23.08,0,0,0,47.31,7.1ZM33.37,14.68c-4.38-.2-4-2.78-4.08-4.78S32.06,8,33.37,8c.62,0,3.93.13,4.28,1.35C38.15,11.12,37.82,14.88,33.37,14.68ZM50.71,9.9c-.1,2,.3,4.58-4.08,4.78s-4.78-3.56-4.28-5.31C42.7,8.15,46,8,46.63,8,47.94,8,50.81,7.9,50.71,9.9Z"/><path class="cls-1" d="M34.33,16.36a2.12,2.12,0,0,0,1.35.7,1.5,1.5,0,0,0,1.4-.57c.5-.48,1.23-1.9,2.39-1.21.43.26.41,1,.31,1.43a2,2,0,0,1-.84,1.14,4,4,0,0,1-3,.43,2.35,2.35,0,0,1-1.1-.67A1.9,1.9,0,0,1,34.33,16.36Z"/><path class="cls-1" d="M45.67,16.36a2.12,2.12,0,0,1-1.35.7,1.5,1.5,0,0,1-1.4-.57c-.5-.48-1.23-1.9-2.39-1.21-.43.26-.41,1-.31,1.43a2,2,0,0,0,.84,1.14,4,4,0,0,0,3,.43,2.35,2.35,0,0,0,1.1-.67A1.9,1.9,0,0,0,45.67,16.36Z"/></g></g></svg>